HIERARCHY
ROOT Hips
{
     OFFSET -16.65530 101.87100 -46.23590
     CHANNELS 6 Xposition Yposition Zposition Zrotation Xrotation Yrotation
     JOINT Spine
     {
          OFFSET 0.00000 11.89050 0.00000
          CHANNELS 3 Zrotation Xrotation Yrotation
          JOINT Spine1
          {
               OFFSET 0.00000 25.65740 0.12766
               CHANNELS 3 Zrotation Xrotation Yrotation
               JOINT HEad
               {
                    OFFSET 0.00000 8.73416 0.01134
                    CHANNELS 3 Zrotation Xrotation Yrotation
                    End Site
                    {
                         OFFSET -0.29000 12.77420 2.51395
                    }
               }
               JOINT LeftShoulder1
               {
                    OFFSET 8.99000 -0.36225 -0.22000
                    CHANNELS 3 Zrotation Xrotation Yrotation
                    JOINT LeftArm
                    {
                         OFFSET 10.28270 -0.00338 0.32212
                         CHANNELS 3 Zrotation Xrotation Yrotation
                         JOINT LeftForeArm
                         {
                              OFFSET 32.76690 0.09914 -1.42434
                              CHANNELS 3 Zrotation Xrotation Yrotation
                              JOINT LeftHand
                              {
                                   OFFSET 27.56430 0.08536 1.02216
                                   CHANNELS 3 Zrotation Xrotation Yrotation
                                   End Site
                                   {
                                        OFFSET 16.74430 -0.60000 1.50291
                                   }
                              }
                         }
                    }
               }
               JOINT RightShoulder
               {
                    OFFSET -8.99000 -0.36225 -0.22000
                    CHANNELS 3 Zrotation Xrotation Yrotation
                    JOINT RightArm
                    {
                         OFFSET -10.28270 -0.00338 0.32212
                         CHANNELS 3 Zrotation Xrotation Yrotation
                         JOINT RightForeArm
                         {
                              OFFSET -32.89710 0.09914 -1.42434
                              CHANNELS 3 Zrotation Xrotation Yrotation
                              JOINT RightHand
                              {
                                   OFFSET -27.49210 0.08536 1.02216
                                   CHANNELS 3 Zrotation Xrotation Yrotation
                                   End Site
                                   {
                                        OFFSET -16.63120 -0.60000 1.50291
                                   }
                              }
                         }
                    }
               }
          }
     }
     JOINT LeftUpLeg
     {
          OFFSET 8.94580 -8.66707 0.10165
          CHANNELS 3 Zrotation Xrotation Yrotation
          JOINT LeftLeg
          {
               OFFSET 0.00000 -44.42270 1.37270
               CHANNELS 3 Zrotation Xrotation Yrotation
               JOINT LeftFoot
               {
                    OFFSET -0.25355 -42.09240 -1.46059
                    CHANNELS 3 Zrotation Xrotation Yrotation
                    JOINT LeftToes
                    {
                         OFFSET -0.04000 -4.41509 8.49910
                         CHANNELS 3 Zrotation Xrotation Yrotation
                         End Site
                         {
                              OFFSET 0.08000 -0.04745 9.77979
                         }
                    }
               }
          }
     }
     JOINT RightUpLeg
     {
          OFFSET -8.94580 -8.66707 0.10165
          CHANNELS 3 Zrotation Xrotation Yrotation
          JOINT RightLeg
          {
               OFFSET 0.00000 -44.42270 1.37270
               CHANNELS 3 Zrotation Xrotation Yrotation
               JOINT RightFoot
               {
                    OFFSET 0.25355 -42.09240 -1.46059
                    CHANNELS 3 Zrotation Xrotation Yrotation
                    JOINT RightToes
                    {
                         OFFSET 0.04000 -4.41509 8.49910
                         CHANNELS 3 Zrotation Xrotation Yrotation
                         End Site
                         {
                              OFFSET -0.08000 -0.13745 9.77979
                         }
                    }
               }
          }
     }
}
MOTION
Frames: 19
Frame Time: 0.01667
10.01320 101.87400 -23.53580 3.86325 -2.90059 22.01680 4.76136 6.36253 1.87916 1.58588 13.04030 4.00584 -3.16599 -9.49832 18.14670 0.00000 0.00000 0.00000 -76.72760 5.63837 -9.33297 6.34412 15.84940 -27.44760 19.14430 11.30080 13.11140 19.74310 1.43226 4.10049 47.12810 0.38458 32.35140 17.82030 15.63630 59.47970 3.18855 10.69980 19.09420 6.74852 -6.07352 -0.11305 -0.70108 7.70653 -1.01342 -9.41462 -8.43027 -0.02884 11.00380 15.47760 -6.62516 -4.91431 -4.28308 -9.94124 1.75504 17.59770 -16.65340 19.38900 -29.94150 3.66499 21.53760 42.79680 -35.62660 
9.45094 102.02500 -23.86980 4.18832 -3.07779 23.54270 4.54615 6.41853 1.97713 1.62730 13.12160 4.23472 -2.97759 -8.48105 18.27080 0.00000 0.00000 0.00000 -78.73210 6.51457 -8.57782 5.35510 13.26520 -24.27740 19.77330 11.17160 12.03570 18.62140 1.37785 4.12901 47.56560 -2.00013 39.44680 16.95710 17.65800 63.52830 2.95012 10.61210 17.90620 6.70930 -5.93490 0.77745 -1.30923 8.78138 2.73330 -7.76528 -8.84155 -0.04325 9.11750 12.99820 -3.97157 -4.78641 -3.69212 -9.63052 1.84817 16.80280 -18.25530 19.45150 -29.71930 3.63769 22.05090 42.94970 -36.69260 
8.91625 102.17000 -24.16330 4.53897 -3.31038 25.21220 4.32451 6.42350 2.03212 1.65305 13.09610 4.38718 -2.69478 -7.21000 18.38870 0.00000 0.00000 0.00000 -80.31520 7.06180 -7.58776 4.40468 10.99530 -21.29690 20.11610 11.02610 11.03240 17.24150 1.29532 4.08726 48.52290 -5.10043 47.11410 15.56930 19.16940 66.83040 2.60005 10.50480 16.56870 6.71253 -5.68797 1.60280 -2.02891 10.16610 6.56903 -5.87865 -9.13514 -0.03693 7.23194 10.20170 -1.04786 -4.64913 -2.97355 -9.38974 1.91102 15.98990 -19.81600 19.40030 -29.47610 3.58306 22.50870 43.00670 -37.77070 
8.42562 102.28000 -24.40320 4.89762 -3.53398 27.03790 4.13430 6.37386 2.07109 1.61989 12.96070 4.51540 -2.25720 -5.79903 18.41710 0.00000 0.00000 0.00000 -81.45180 7.52992 -6.50782 3.67170 9.19850 -18.53730 20.02470 10.90510 10.34220 15.64580 1.18443 3.94477 50.11980 -8.61028 55.12080 13.71930 19.95240 69.18440 2.27885 10.40720 15.09110 6.76785 -5.37580 2.19999 -2.84832 11.71870 10.19780 -4.19799 -9.26149 -0.01889 5.55956 7.50292 1.23072 -4.54486 -2.24485 -9.25359 1.98130 15.30570 -21.34690 19.36770 -29.29210 3.54317 22.83670 42.95810 -38.69940 
7.98736 102.34100 -24.58540 5.23791 -3.73470 29.03580 3.98366 6.28179 2.11575 1.52327 12.74040 4.66292 -1.64402 -4.37813 18.25450 0.00000 0.00000 0.00000 -82.13210 8.11786 -5.45731 3.23772 8.06473 -16.03180 19.56400 10.86020 10.21740 13.86380 1.04859 3.68134 52.18250 -12.15820 63.18200 11.45070 19.79530 70.48090 2.14832 10.34450 13.48690 6.88808 -5.04901 2.56378 -3.68056 13.39390 13.34330 -3.18432 -9.22738 -0.00377 4.10277 5.22382 2.12277 -4.45985 -1.54698 -9.24405 2.06586 14.81170 -22.91210 19.54300 -29.25740 3.57244 23.07290 42.89410 -39.41900 
7.59856 102.36700 -24.71270 5.55482 -3.91591 31.21970 3.83872 6.16007 2.17727 1.37346 12.46160 4.84895 -0.87126 -3.05633 17.84520 0.00000 0.00000 0.00000 -82.36010 8.84561 -4.48549 3.04002 7.78820 -13.83000 18.98710 10.91870 10.77650 11.92960 0.89337 3.27553 54.21780 -15.47450 70.94410 8.83375 18.51790 70.61290 2.32560 10.32790 11.84740 7.06126 -4.70177 2.77266 -4.42492 15.08870 15.87240 -2.94644 -9.00129 0.00403 2.68058 3.37912 1.38929 -4.36929 -0.85208 -9.36495 2.15505 14.44970 -24.58620 20.04130 -29.38800 3.69797 23.29530 42.90390 -39.96360 
7.25279 102.37500 -24.79060 5.84647 -4.06109 33.57960 3.66782 6.00760 2.25877 1.17383 12.12200 5.07213 0.03322 -1.89893 17.19860 0.00000 0.00000 0.00000 -82.14600 9.60571 -3.59096 2.91804 8.36619 -11.94790 18.53930 11.06720 11.90260 9.90082 0.72790 2.71062 55.57500 -18.51150 78.01010 5.98350 16.04280 69.39910 2.83090 10.35260 10.37290 7.27291 -4.33855 2.94038 -5.03987 16.71050 17.75850 -3.14719 -8.65943 0.00905 1.27598 1.98216 -0.55943 -4.25767 -0.16456 -9.58398 2.23811 14.15880 -26.39130 20.79010 -29.60030 3.89241 23.49800 42.95250 -40.38250 
6.94518 102.38100 -24.82350 6.09766 -4.13284 36.09860 3.46045 5.81444 2.34662 0.92791 11.70180 5.29683 1.04719 -0.95374 16.37200 0.00000 0.00000 0.00000 -81.49760 10.26470 -2.79821 2.65716 9.46412 -10.26210 18.34980 11.24990 13.18040 7.82701 0.56388 1.98759 55.68090 -21.39070 84.01360 2.97628 12.45050 66.60970 3.55857 10.40610 9.33343 7.52696 -3.98444 3.12301 -5.57489 18.16870 19.05370 -3.25369 -8.40377 0.01389 0.14171 1.15799 -2.83383 -4.11796 0.46425 -9.85089 2.31243 13.90710 -28.28950 21.52730 -29.74640 4.07460 23.57930 42.89650 -40.69180 
6.67569 102.39800 -24.81680 6.28614 -4.10294 38.76500 3.22485 5.57524 2.41278 0.65586 11.19150 5.46057 2.13992 -0.27832 15.42850 0.00000 0.00000 0.00000 -80.45500 10.65110 -2.16957 2.06217 10.63200 -8.53884 18.51330 11.39560 14.04150 5.69575 0.41126 1.11602 54.19080 -24.26700 88.66130 -0.16550 7.99717 62.05250 4.27268 10.47310 8.93844 7.84458 -3.65151 3.28491 -6.12216 19.34960 19.92170 -2.90060 -8.38864 0.01651 -0.51540 0.87792 -4.63421 -3.95264 0.98723 -10.12210 2.39429 13.66770 -30.21940 21.90780 -29.67630 4.13963 23.39370 42.57200 -40.84020 
6.44940 102.42700 -24.77910 6.40867 -3.97898 41.54300 2.97860 5.29653 2.43505 0.38256 10.60590 5.51856 3.24220 0.08016 14.41260 0.00000 0.00000 0.00000 -79.17210 10.53760 -1.61124 1.18628 11.63490 -6.84608 19.05930 11.48480 14.30780 3.44967 0.27978 0.11225 51.04780 -27.24320 91.75150 -3.36821 3.13102 55.66940 4.67411 10.53110 9.19207 8.24213 -3.30107 3.38711 -6.71995 20.13330 20.58890 -2.12937 -8.61250 0.01865 -0.72105 0.94825 -5.65975 -3.78011 1.40261 -10.35050 2.50465 13.42070 -32.13330 21.73740 -29.31070 4.02956 22.84150 41.88870 -40.74030 
6.27432 102.45900 -24.72290 6.51427 -3.80175 44.35670 2.73313 4.99986 2.41116 0.10136 9.98818 5.47598 4.24221 0.13005 13.35400 0.00000 0.00000 0.00000 -77.89080 9.84071 -0.76737 0.43138 12.38630 -5.78126 19.79920 11.56120 14.37570 1.08437 0.18213 -0.98497 46.46050 -30.32570 93.22490 -6.41832 -1.58249 47.61580 4.57644 10.55090 9.86763 8.69767 -2.82243 3.44397 -7.32582 20.40660 21.26430 -1.25245 -8.96449 0.02431 -0.64162 1.17462 -6.04544 -3.65058 1.76507 -10.49830 2.64275 13.19770 -33.99020 21.22120 -28.73840 3.81053 22.00680 40.93330 -40.41320 
6.15748 102.48400 -24.66030 6.68719 -3.61256 47.14100 2.48729 4.71314 2.35426 -0.22727 9.39281 5.37364 5.03685 -0.02695 12.25200 0.00000 0.00000 0.00000 -76.71820 8.78780 0.63322 0.11996 12.70050 -5.80978 20.43290 11.63120 14.45580 -1.30988 0.12872 -2.12269 40.83190 -33.41690 93.20890 -9.00868 -5.63575 38.29060 4.04778 10.51830 10.64170 9.15465 -2.09206 3.48954 -7.87776 20.10150 22.10330 -0.46544 -9.36255 0.03419 -0.39293 1.49954 -6.07414 -3.63252 2.15394 -10.60140 2.79087 13.08980 -35.71030 20.81270 -28.20110 3.62535 21.15190 39.95510 -40.03900 
6.10002 102.50000 -24.59970 6.96260 -3.42002 49.88570 2.23367 4.45064 2.28285 -0.62807 8.84726 5.25414 5.61052 -0.18691 11.06260 0.00000 0.00000 0.00000 -75.53750 7.68604 2.43779 0.10615 12.42930 -6.64420 20.76340 11.61480 14.19180 -3.62632 0.12190 -3.26088 34.70970 -36.37140 92.02810 -10.86950 -8.67431 28.26450 3.35122 10.45060 11.26740 9.57754 -1.09006 3.54259 -8.34985 19.24320 23.19620 0.28707 -9.82039 0.04948 0.07082 2.03853 -5.91546 -3.75249 2.61080 -10.74510 2.94132 13.14400 -37.19920 20.72360 -27.86350 3.54320 20.49250 39.14870 -39.82930 
6.09680 102.51700 -24.54880 7.28313 -3.20514 52.60910 1.96751 4.20893 2.21899 -1.08223 8.34494 5.15339 6.04464 -0.10350 9.71620 0.00000 0.00000 0.00000 -74.22680 6.68994 4.24387 0.07618 11.66380 -7.66175 20.70270 11.45970 13.32990 -5.81597 0.15816 -4.38992 28.74840 -39.10310 90.18490 -11.81980 -10.47710 18.14820 2.75138 10.38120 11.64420 9.97730 0.07133 3.62781 -8.74291 17.94690 24.57840 1.13862 -10.36810 0.07465 0.85403 2.93013 -5.56979 -3.96987 3.11460 -10.95590 3.10569 13.28900 -38.43180 20.78860 -27.66580 3.51742 20.06340 38.50580 -39.93310 
6.13996 102.54400 -24.51800 7.56680 -2.95510 55.32200 1.69422 3.98525 2.18278 -1.55269 7.88102 5.10154 6.44382 0.33440 8.15476 0.00000 0.00000 0.00000 -72.82020 5.82219 5.73881 -0.07007 10.66050 -8.52033 20.28080 11.21940 12.11330 -7.86647 0.23347 -5.53422 23.63100 -41.63530 88.28450 -11.78440 -10.94240 8.50799 2.38009 10.33350 11.77320 10.36980 1.24992 3.80807 -9.04152 16.36950 26.25860 2.14108 -10.94860 0.11327 1.90600 4.12165 -5.03974 -4.22275 3.62726 -11.19490 3.29243 13.41420 -39.47380 20.81760 -27.47010 3.48514 19.82250 37.95620 -40.40280 
6.22171 102.58000 -24.51920 7.78083 -2.67813 58.03400 1.43218 3.78726 2.17921 -2.01689 7.47071 5.10872 6.89073 0.95950 6.38102 0.00000 0.00000 0.00000 -71.43880 5.05548 6.81145 -0.26402 9.69971 -9.20314 19.70240 10.99120 10.96920 -9.72262 0.34378 -6.73157 19.87610 -44.02280 86.87310 -10.66230 -10.26680 0.23078 2.24249 10.31240 11.69890 10.74770 2.36148 4.16001 -9.21192 14.65570 28.26440 3.23446 -11.37250 0.15993 2.86584 5.20607 -4.48798 -4.47000 4.13370 -11.42810 3.48734 13.48130 -40.43060 20.83270 -27.24080 3.44375 19.74840 37.51760 -41.15000 
6.33634 102.60500 -24.56480 7.92772 -2.39478 60.75610 1.20559 3.61996 2.19597 -2.46188 7.12352 5.15640 7.43483 1.44836 4.47012 0.00000 0.00000 0.00000 -70.17140 4.32653 7.50735 -0.43822 8.99266 -9.82527 19.21700 10.83260 10.15750 -11.25660 0.47917 -7.98937 17.66850 -46.24700 86.26740 -6.32720 -9.48980 -1.83016 2.27943 10.31170 11.47850 11.10620 3.37575 4.69561 -9.26213 12.89730 30.67770 4.34427 -11.43650 0.19934 3.29168 5.67719 -4.17953 -4.68474 4.62799 -11.64180 3.66582 13.52630 -41.38250 20.93340 -27.02890 3.42124 19.80450 37.23710 -41.95540 
6.48379 102.60400 -24.66590 8.00921 -2.12932 63.48180 1.03043 3.47225 2.21022 -2.86628 6.81796 5.20161 8.05403 1.58897 2.53440 0.00000 0.00000 0.00000 -69.03880 3.50367 7.96419 -0.59972 8.62534 -10.48960 18.95550 10.74190 9.66893 -12.34450 0.61894 -9.23896 16.93350 -48.20640 86.52280 -3.17447 -8.02965 -3.30053 2.38158 10.31610 11.12770 11.45920 4.29068 5.31573 -9.27153 11.14260 33.55690 5.43236 -11.16990 0.22129 3.22061 5.60413 -4.25545 -4.84455 5.10243 -11.81720 3.81471 13.58830 -42.36560 21.14140 -26.86380 3.42680 19.88900 37.08400 -42.56490 
6.67294 102.56300 -24.83440 8.02798 -1.91161 66.18170 0.92090 3.32350 2.19317 -3.20131 6.51699 5.19097 8.65093 1.39417 0.70363 0.00000 0.00000 0.00000 -68.03650 2.42998 8.35579 -0.79708 8.55609 -11.23500 18.92690 10.68740 9.33179 -12.95420 0.73587 -10.33980 17.45060 -49.80590 87.47470 -1.62796 -6.83642 -3.99604 2.41314 10.30680 10.63640 11.82290 5.09974 5.89222 -9.31968 9.48976 36.77160 6.43404 -10.80870 0.22962 3.10983 5.52280 -4.50672 -4.94518 5.54797 -11.92710 3.94677 13.70840 -43.39200 21.43620 -26.73190 3.45379 19.86460 36.93240 -42.84030 
